# xmcd
#
# Track frame offsets: 
#        150
#        14728
#        25053
#        41635
#        52538
#        68620
#        77213
#        90245
#        102625
#        116125
#        128423
#        140483
#        147973
#        162725
#        176270
#        193348
#        206940
#        214040
#        226578
#        237470
#        244840
#        258683
#        269275
#
# Disc length: 3742 seconds
#
# Revision: 1
# Processed by: cddbd v1.5.2PL0 Copyright (c) Steve Scherf et al.
# Submitted via: ExactAudioCopy v0.99pb5
#
DISCID=4c0e9c17
DTITLE=J.B. Lenoir - Passionate blues
DYEAR=2002
DGENRE=Blues
TTITLE0=Alabama blues
TTITLE1=The mojo bogie
TTITLE2=God's work
TTITLE3=The whale has swallowed
TTITLE4=Move this rope
TTITLE5=I feel so good
TTITLE6=Alabama march
TTITLE7=Talk to your daughter
TTITLE8=Mississipi road
TTITLE9=Good advice
TTITLE10=Vietnam
TTITLE11=I want to go
TTITLE12=Down in Mississipi
TTITLE13=If I get lucky
TTITLE14=Born dead
TTITLE15=Feelin' good
TTITLE16=Slow down
TTITLE17=Short on Meredith
TTITLE18=Voodoo music
TTITLE19=Leavin' here
TTITLE20=Vietnam blues
TTITLE21=Tax payin' blues
TTITLE22=How much more
EXTD=YEAR: 2002
EXTT0=
EXTT1=
EXTT2=
EXTT3=
EXTT4=
EXTT5=
EXTT6=
EXTT7=
EXTT8=
EXTT9=
EXTT10=
EXTT11=
EXTT12=
EXTT13=
EXTT14=
EXTT15=
EXTT16=
EXTT17=
EXTT18=
EXTT19=
EXTT20=
EXTT21=
EXTT22=
PLAYORDER=
